<svg preserveAspectRatio="none" width="100%" height="100%" overflow="visible" style="display: block;" viewBox="0 0 13.9952 10.9683" fill="none" xmlns="http://www.w3.org/2000/svg">
<g id="volume-level-high--speaker-high-volume-control-audio-music-entertainment">
<path id="Vector" d="M12.4951 8.98464C13.1348 7.92812 13.4801 6.71964 13.4951 5.48464C13.4801 4.24964 13.1348 3.04116 12.4951 1.98464" stroke="var(--stroke-0, white)" stroke-linecap="round" stroke-linejoin="round"/>
<path id="Vector_2" d="M10.5 3.98464C10.8476 4.40493 11.0259 4.93982 11 5.48464C11.0259 6.02946 10.8476 6.56435 10.5 6.98464" stroke="var(--stroke-0, white)" stroke-linecap="round" stroke-linejoin="round"/>
<path id="Vector_3" d="M3 3.48466H1.5C0.955333 3.48466 0.5 3.93999 0.5 4.48466V6.48466C0.5 7.02932 0.955333 7.48466 1.5 7.48466H3L6.91 10.2946C7.5553 10.7411 8.48254 10.271 8.5 9.48464V1.48464C8.51874 0.697802 7.6471 0.226912 7 0.674642L3 3.48466Z" stroke="var(--stroke-0, white)" stroke-linecap="round" stroke-linejoin="round"/>
</g>
</svg>
